<svg width="741" height="741" viewBox="0 0 741 741" fill="none" xmlns="http://www.w3.org/2000/svg">
<path fill-rule="evenodd" clip-rule="evenodd" d="M93 388.122V363.232C93 220.615 208.615 105 351.232 105V154.78C232.671 154.78 136.557 250.893 136.557 369.455V388.122H93ZM368.502 200.685L392.201 234.16V383.37L498.907 276.663V310.179V343.694L392.201 450.401V492.992L542.237 342.955V376.471V409.986L392.201 560.023V586.091H411.053L568.059 429.085L568.356 429.382L568.653 429.085L640.601 501.032L607.085 501.032L571.111 501.032L563.143 501.032L430 634.175L429.314 633.489H308.661V633.393L308.445 633.61L175.868 501.032L168.921 501.033L132.947 501.033L99.4315 501.033L171.379 429.085L204.895 462.601L204.758 462.892L327.957 586.091H344.803V559.766L195.023 409.987V376.471V342.955L344.803 492.735V446.307L242.19 343.695L242.19 310.179V276.663L344.803 379.276V234.16L368.502 200.685ZM646.799 363.232V388.122H603.242V369.455C603.242 250.893 507.129 154.78 388.567 154.78V105C531.185 105 646.799 220.615 646.799 363.232Z" fill="black"/>
</svg>
